<svg xmlns="http://www.w3.org/2000/svg" version="1.1" xmlns:xlink="http://www.w3.org/1999/xlink" xmlns:svgjs="http://svgjs.dev/svgjs" width="2000" height="2250" viewBox="0 0 2000 2250"><g transform="matrix(1,0,0,1,0,0)"><svg viewBox="0 0 320 360" data-background-color="#ffffff" preserveAspectRatio="xMidYMid meet" height="2250" width="2000" xmlns="http://www.w3.org/2000/svg" xmlns:xlink="http://www.w3.org/1999/xlink"><g id="tight-bounds" transform="matrix(1,0,0,1,0,0)"><svg viewBox="0 0 320 360" height="360" width="320"><rect width="320" height="360" fill="url(#cbfbd642-95d8-48f5-89b5-d402ad11c5b3)" mask="url(#88763356-5d86-4c2b-b28a-f5775103d2ca)" data-fill-palette-color="tertiary"></rect><g><svg></svg></g><g><svg viewBox="0 0 320 360" height="360" width="320"><g><path d="M320 187.111c0-45.764-20.238-86.866-52.203-114.908-28.043-31.964-69.145-52.203-114.908-52.203-84.302 0-152.889 68.587-152.889 152.889 0 45.753 20.231 86.848 52.185 114.891 28.043 31.975 69.152 52.22 114.926 52.22 0.299 0 0.59-0.021 0.889-0.021 0.299 0 0.59 0.021 0.889 0.021 83.456 0 151.111-67.655 151.111-151.111 0-0.299-0.021-0.59-0.021-0.889 0-0.299 0.021-0.59 0.021-0.889zM59.833 263.097c-15.093-21.255-24.071-47.143-24.256-75.097 0.48-72.928 59.492-131.943 132.423-132.423 27.954 0.185 53.845 9.163 75.097 24.256 24.366 23.627 39.57 56.64 39.57 93.056 0 71.559-58.219 129.778-129.778 129.778-36.416 0-69.429-15.204-93.056-39.57zM3.556 172.889c0-82.343 66.99-149.333 149.333-149.333 35.051 0 67.292 12.167 92.8 32.462-22.98-13.824-49.863-21.796-78.578-21.796-84.302 0-152.889 68.587-152.889 152.889 0 28.708 7.968 55.584 21.785 78.56-20.288-25.5-32.452-57.739-32.451-92.782zM167.111 318.667c-35.84 0-68.363-14.418-92.107-37.743 21.952 15.89 48.864 25.298 77.885 25.298 73.522 0 133.333-59.812 133.333-133.333 0-29.02-9.408-55.932-25.298-77.885 23.324 23.744 37.742 56.267 37.743 92.107 0 72.54-59.015 131.556-131.556 131.556z" fill="url(#cbfbd642-95d8-48f5-89b5-d402ad11c5b3)" fill-rule="nonzero" stroke="none" stroke-width="1" stroke-linecap="butt" stroke-linejoin="miter" stroke-miterlimit="10" stroke-dasharray="" stroke-dashoffset="0" font-family="none" font-weight="none" font-size="none" text-anchor="none" style="mix-blend-mode: normal" data-fill-palette-color="tertiary"></path></g><g transform="matrix(1,0,0,1,64,119.44053282588011)"><svg viewBox="0 0 192 121.11893434823978" height="121.11893434823978" width="192"><g><svg viewBox="0 0 192 121.11893434823978" height="121.11893434823978" width="192"><g><svg viewBox="0 0 192 121.11893434823978" height="121.11893434823978" width="192"><g><svg viewBox="0 0 192 121.11893434823978" height="121.11893434823978" width="192"><g id="textblocktransform"><svg viewBox="0 0 192 121.11893434823978" height="121.11893434823978" width="192" id="textblock"><g><svg viewBox="0 0 192 121.11893434823978" height="121.11893434823978" width="192"><g transform="matrix(1,0,0,1,0,0)"><svg width="192" viewBox="2 -32.55 53.55 34.150000000000006" height="121.11893434823978" data-palette-color="url(#4193ab75-9e05-40d3-b216-a3722b22eeee)"></svg></g></svg></g></svg></g></svg></g><g></g></svg></g></svg></g></svg></g></svg></g><defs></defs><mask id="f8115457-1db5-4d22-b19f-6421f47f7351"><g id="SvgjsG3630"><svg viewBox="0 0 320 360" height="360" width="320"><g><svg></svg></g><g><svg viewBox="0 0 320 360" height="360" width="320"><g><path d="M320 187.111c0-45.764-20.238-86.866-52.203-114.908-28.043-31.964-69.145-52.203-114.908-52.203-84.302 0-152.889 68.587-152.889 152.889 0 45.753 20.231 86.848 52.185 114.891 28.043 31.975 69.152 52.22 114.926 52.22 0.299 0 0.59-0.021 0.889-0.021 0.299 0 0.59 0.021 0.889 0.021 83.456 0 151.111-67.655 151.111-151.111 0-0.299-0.021-0.59-0.021-0.889 0-0.299 0.021-0.59 0.021-0.889zM59.833 263.097c-15.093-21.255-24.071-47.143-24.256-75.097 0.48-72.928 59.492-131.943 132.423-132.423 27.954 0.185 53.845 9.163 75.097 24.256 24.366 23.627 39.57 56.64 39.57 93.056 0 71.559-58.219 129.778-129.778 129.778-36.416 0-69.429-15.204-93.056-39.57zM3.556 172.889c0-82.343 66.99-149.333 149.333-149.333 35.051 0 67.292 12.167 92.8 32.462-22.98-13.824-49.863-21.796-78.578-21.796-84.302 0-152.889 68.587-152.889 152.889 0 28.708 7.968 55.584 21.785 78.56-20.288-25.5-32.452-57.739-32.451-92.782zM167.111 318.667c-35.84 0-68.363-14.418-92.107-37.743 21.952 15.89 48.864 25.298 77.885 25.298 73.522 0 133.333-59.812 133.333-133.333 0-29.02-9.408-55.932-25.298-77.885 23.324 23.744 37.742 56.267 37.743 92.107 0 72.54-59.015 131.556-131.556 131.556z" fill="black" fill-rule="nonzero" stroke="none" stroke-width="1" stroke-linecap="butt" stroke-linejoin="miter" stroke-miterlimit="10" stroke-dasharray="" stroke-dashoffset="0" font-family="none" font-weight="none" font-size="none" text-anchor="none" style="mix-blend-mode: normal"></path></g><g transform="matrix(1,0,0,1,64,119.44053282588011)"><svg viewBox="0 0 192 121.11893434823978" height="121.11893434823978" width="192"><g><svg viewBox="0 0 192 121.11893434823978" height="121.11893434823978" width="192"><g><svg viewBox="0 0 192 121.11893434823978" height="121.11893434823978" width="192"><g><svg viewBox="0 0 192 121.11893434823978" height="121.11893434823978" width="192"><g id="SvgjsG3629"><svg viewBox="0 0 192 121.11893434823978" height="121.11893434823978" width="192" id="SvgjsSvg3628"><g><svg viewBox="0 0 192 121.11893434823978" height="121.11893434823978" width="192"><g transform="matrix(1,0,0,1,0,0)"><svg width="192" viewBox="2 -32.55 53.55 34.150000000000006" height="121.11893434823978" data-palette-color="url(#4193ab75-9e05-40d3-b216-a3722b22eeee)"><path d="M21.65 0.6L7.55 0.6 7.55-3.9 3-3.9 3-8.95 8.05-8.95 8.05-4.4 21.15-4.4 21.15-13 7.55-13 7.55-17.5 3-17.5 3-27 7.55-27 7.55-31.55 21.65-31.55 21.65-27 26.25-27 26.25-22 21.15-22 21.15-26.5 8.05-26.5 8.05-17.95 21.65-17.95 21.65-13.5 26.25-13.5 26.25-3.9 21.65-3.9 21.65 0.6ZM45.45 0.6L40.35 0.6 40.35-26.5 36.35-26.5 36.35-22 31.3-22 31.3-27 35.85-27 35.85-31.55 49.95-31.55 49.95-27 54.55-27 54.55-22 49.45-22 49.45-26.5 45.45-26.5 45.45 0.6Z" opacity="1" transform="matrix(1,0,0,1,0,0)" fill="white" class="wordmark-text-0" id="SvgjsPath3627"></path></svg></g></svg></g></svg></g></svg></g><g></g></svg></g></svg></g></svg></g></svg></g><defs><mask></mask></defs></svg><rect width="320" height="360" fill="black" stroke="none" visibility="hidden"></rect></g></mask><linearGradient x1="0" x2="1" y1="0.548" y2="0.55" id="4193ab75-9e05-40d3-b216-a3722b22eeee"><stop stop-color="#ff6cab" offset="0"></stop><stop stop-color="#7366ff" offset="1"></stop></linearGradient><rect width="320" height="360" fill="url(#4193ab75-9e05-40d3-b216-a3722b22eeee)" mask="url(#f8115457-1db5-4d22-b19f-6421f47f7351)" data-fill-palette-color="primary"></rect><mask id="88763356-5d86-4c2b-b28a-f5775103d2ca"><g id="SvgjsG3645"><svg viewBox="0 0 320 360" height="360" width="320"><g><svg></svg></g><g><svg viewBox="0 0 320 360" height="360" width="320"><g><path d="M320 187.111c0-45.764-20.238-86.866-52.203-114.908-28.043-31.964-69.145-52.203-114.908-52.203-84.302 0-152.889 68.587-152.889 152.889 0 45.753 20.231 86.848 52.185 114.891 28.043 31.975 69.152 52.22 114.926 52.22 0.299 0 0.59-0.021 0.889-0.021 0.299 0 0.59 0.021 0.889 0.021 83.456 0 151.111-67.655 151.111-151.111 0-0.299-0.021-0.59-0.021-0.889 0-0.299 0.021-0.59 0.021-0.889zM59.833 263.097c-15.093-21.255-24.071-47.143-24.256-75.097 0.48-72.928 59.492-131.943 132.423-132.423 27.954 0.185 53.845 9.163 75.097 24.256 24.366 23.627 39.57 56.64 39.57 93.056 0 71.559-58.219 129.778-129.778 129.778-36.416 0-69.429-15.204-93.056-39.57zM3.556 172.889c0-82.343 66.99-149.333 149.333-149.333 35.051 0 67.292 12.167 92.8 32.462-22.98-13.824-49.863-21.796-78.578-21.796-84.302 0-152.889 68.587-152.889 152.889 0 28.708 7.968 55.584 21.785 78.56-20.288-25.5-32.452-57.739-32.451-92.782zM167.111 318.667c-35.84 0-68.363-14.418-92.107-37.743 21.952 15.89 48.864 25.298 77.885 25.298 73.522 0 133.333-59.812 133.333-133.333 0-29.02-9.408-55.932-25.298-77.885 23.324 23.744 37.742 56.267 37.743 92.107 0 72.54-59.015 131.556-131.556 131.556z" fill="white" fill-rule="nonzero" stroke="none" stroke-width="1" stroke-linecap="butt" stroke-linejoin="miter" stroke-miterlimit="10" stroke-dasharray="" stroke-dashoffset="0" font-family="none" font-weight="none" font-size="none" text-anchor="none" style="mix-blend-mode: normal"></path></g><g transform="matrix(1,0,0,1,64,119.44053282588011)"><svg viewBox="0 0 192 121.11893434823978" height="121.11893434823978" width="192"><g><svg viewBox="0 0 192 121.11893434823978" height="121.11893434823978" width="192"><g><svg viewBox="0 0 192 121.11893434823978" height="121.11893434823978" width="192"><g><svg viewBox="0 0 192 121.11893434823978" height="121.11893434823978" width="192"><g id="SvgjsG3644"><svg viewBox="0 0 192 121.11893434823978" height="121.11893434823978" width="192" id="SvgjsSvg3643"><g><svg viewBox="0 0 192 121.11893434823978" height="121.11893434823978" width="192"><g transform="matrix(1,0,0,1,0,0)"><svg width="192" viewBox="2 -32.55 53.55 34.150000000000006" height="121.11893434823978" data-palette-color="url(#4193ab75-9e05-40d3-b216-a3722b22eeee)"></svg></g></svg></g></svg></g></svg></g><g></g></svg></g></svg></g></svg></g></svg></g><defs><mask></mask></defs><mask><g id="SvgjsG3642"><svg viewBox="0 0 320 360" height="360" width="320"><g><svg></svg></g><g><svg viewBox="0 0 320 360" height="360" width="320"><g><path d="M320 187.111c0-45.764-20.238-86.866-52.203-114.908-28.043-31.964-69.145-52.203-114.908-52.203-84.302 0-152.889 68.587-152.889 152.889 0 45.753 20.231 86.848 52.185 114.891 28.043 31.975 69.152 52.22 114.926 52.22 0.299 0 0.59-0.021 0.889-0.021 0.299 0 0.59 0.021 0.889 0.021 83.456 0 151.111-67.655 151.111-151.111 0-0.299-0.021-0.59-0.021-0.889 0-0.299 0.021-0.59 0.021-0.889zM59.833 263.097c-15.093-21.255-24.071-47.143-24.256-75.097 0.48-72.928 59.492-131.943 132.423-132.423 27.954 0.185 53.845 9.163 75.097 24.256 24.366 23.627 39.57 56.64 39.57 93.056 0 71.559-58.219 129.778-129.778 129.778-36.416 0-69.429-15.204-93.056-39.57zM3.556 172.889c0-82.343 66.99-149.333 149.333-149.333 35.051 0 67.292 12.167 92.8 32.462-22.98-13.824-49.863-21.796-78.578-21.796-84.302 0-152.889 68.587-152.889 152.889 0 28.708 7.968 55.584 21.785 78.56-20.288-25.5-32.452-57.739-32.451-92.782zM167.111 318.667c-35.84 0-68.363-14.418-92.107-37.743 21.952 15.89 48.864 25.298 77.885 25.298 73.522 0 133.333-59.812 133.333-133.333 0-29.02-9.408-55.932-25.298-77.885 23.324 23.744 37.742 56.267 37.743 92.107 0 72.54-59.015 131.556-131.556 131.556z" fill="black" fill-rule="nonzero" stroke="none" stroke-width="1" stroke-linecap="butt" stroke-linejoin="miter" stroke-miterlimit="10" stroke-dasharray="" stroke-dashoffset="0" font-family="none" font-weight="none" font-size="none" text-anchor="none" style="mix-blend-mode: normal"></path></g><g transform="matrix(1,0,0,1,64,119.44053282588011)"><svg viewBox="0 0 192 121.11893434823978" height="121.11893434823978" width="192"><g><svg viewBox="0 0 192 121.11893434823978" height="121.11893434823978" width="192"><g><svg viewBox="0 0 192 121.11893434823978" height="121.11893434823978" width="192"><g><svg viewBox="0 0 192 121.11893434823978" height="121.11893434823978" width="192"><g id="SvgjsG3641"><svg viewBox="0 0 192 121.11893434823978" height="121.11893434823978" width="192" id="SvgjsSvg3640"><g><svg viewBox="0 0 192 121.11893434823978" height="121.11893434823978" width="192"><g transform="matrix(1,0,0,1,0,0)"><svg width="192" viewBox="2 -32.55 53.55 34.150000000000006" height="121.11893434823978" data-palette-color="url(#4193ab75-9e05-40d3-b216-a3722b22eeee)"><path d="M21.65 0.6L7.55 0.6 7.55-3.9 3-3.9 3-8.95 8.05-8.95 8.05-4.4 21.15-4.4 21.15-13 7.55-13 7.55-17.5 3-17.5 3-27 7.55-27 7.55-31.55 21.65-31.55 21.65-27 26.25-27 26.25-22 21.15-22 21.15-26.5 8.05-26.5 8.05-17.95 21.65-17.95 21.65-13.5 26.25-13.5 26.25-3.9 21.65-3.9 21.65 0.6ZM45.45 0.6L40.35 0.6 40.35-26.5 36.35-26.5 36.35-22 31.3-22 31.3-27 35.85-27 35.85-31.55 49.95-31.55 49.95-27 54.55-27 54.55-22 49.45-22 49.45-26.5 45.45-26.5 45.45 0.6Z" opacity="1" transform="matrix(1,0,0,1,0,0)" fill="black" class="wordmark-text-0" id="SvgjsPath3639"></path></svg></g></svg></g></svg></g></svg></g><g></g></svg></g></svg></g></svg></g></svg></g><defs><mask></mask></defs></svg><rect width="320" height="360" fill="black" stroke="none" visibility="hidden"></rect></g></mask></svg><rect width="320" height="360" fill="black" stroke="none" visibility="hidden"></rect></g></mask><linearGradient x1="0" x2="1" y1="0.548" y2="0.55" id="cbfbd642-95d8-48f5-89b5-d402ad11c5b3"><stop stop-color="#ff6cab" offset="0"></stop><stop stop-color="#7366ff" offset="1"></stop></linearGradient></svg><rect width="320" height="360" fill="none" stroke="none" visibility="hidden"></rect></g></svg></g></svg>