<svg xmlns="http://www.w3.org/2000/svg" version="1.1" xmlns:xlink="http://www.w3.org/1999/xlink" xmlns:svgjs="http://svgjs.dev/svgjs" width="2000" height="1252" viewBox="0 0 2000 1252"><g transform="matrix(1,0,0,1,-1.2121212121212466,-2.01935483870966)"><svg viewBox="0 0 396 248" data-background-color="#ffffff" preserveAspectRatio="xMidYMid meet" height="1252" width="2000" xmlns="http://www.w3.org/2000/svg" xmlns:xlink="http://www.w3.org/1999/xlink"><g id="tight-bounds" transform="matrix(1,0,0,1,0.2400000000000091,0.4000000000000057)"><svg viewBox="0 0 395.52 247.2" height="247.2" width="395.52"><g><svg></svg></g><g><svg viewBox="0 0 395.52 247.2" height="247.2" width="395.52"><mask id="b5b557c5-6636-470a-9453-8e60299685d3"><rect width="640" height="400" fill="white"></rect><g transform="matrix(1,0,0,1,39.55199999999999,76.25209706257982)"><svg viewBox="0 0 316.416 94.69580587484035" height="94.69580587484035" width="316.416"><g><svg viewBox="0 0 316.416 94.69580587484035" height="94.69580587484035" width="316.416"><g><svg viewBox="0 0 316.416 94.69580587484035" height="94.69580587484035" width="316.416"><g id="SvgjsG5014"><svg viewBox="0 0 316.416 94.69580587484035" height="94.69580587484035" width="316.416" id="SvgjsSvg5013"><g><svg viewBox="0 0 316.416 94.69580587484035" height="94.69580587484035" width="316.416"><g transform="matrix(1,0,0,1,0,0)"><svg width="316.416" viewBox="1.9999999999999991 -32.55 236.9 69.3" height="94.69580587484035" data-palette-color="#000000"><svg></svg><svg></svg><g class="wordmark-text-0" data-fill-palette-color="primary" id="SvgjsG5012"><path d="M125.2 0.6h-14.1v-4.5h-4.55v-5.05h5.05v4.55h13.1v-8.6h-13.6v-4.5h-4.55v-9.5h4.55v-4.55h14.1v4.55h4.6v5h-5.1v-4.5h-13.1v8.55h13.6v4.45h4.6v9.6h-4.6zM154.5 0.6h-14.1v-4.5h-4.55v-23.1h4.55v-4.55h14.1v4.55h4.6v23.1h-4.6zM140.9-26.5v22.1h13.1v-22.1zM183.8 0.6h-14.1v-4.5h-4.55v-27.65h5.05v27.15h13.1v-4.55h5.1v5.05h-4.6zM208.6 0.6h-14.15v-5h4.55v-22.1h-4.55v-5.05h14.15v5.05h-4.6v22.1h4.6zM233.3 0.6h-14.1v-4.5h-4.55v-5.05h5.05v4.55h13.1v-8.6h-13.6v-4.5h-4.55v-9.5h4.55v-4.55h14.1v4.55h4.6v5h-5.1v-4.5h-13.1v8.55h13.6v4.45h4.6v9.6h-4.6z" fill="black" fill-rule="nonzero" stroke="black" stroke-width="1" stroke-linecap="butt" stroke-linejoin="round" stroke-miterlimit="10" stroke-dasharray="" stroke-dashoffset="0" font-family="none" font-weight="none" font-size="none" text-anchor="none" style="mix-blend-mode: normal" opacity="1"></path><path d="M17.15 35.75h-5.1v-27.1h-4v4.5h-5.05v-5h4.55v-4.55h14.1v4.55h4.6v5h-5.1v-4.5h-4zM49.45 35.75h-14.1v-4.5h-4.55v-23.1h4.55v-4.55h14.1v4.55h4.6v5h-5.1v-4.5h-13.1v8.55h9.1v4.95h-9.1v8.6h13.1v-4.55h5.1v5.05h-4.6zM65.15 35.75h-5.05v-32.15h5.05v4.55h4.5v4.5h4.6v13.55h4v-22.6h5.1v32.15h-5.1v-4.5h-4.5v-4.55h-4.6v-13.55h-4zM108.05 35.75h-14.1v-4.5h-4.55v-23.1h4.55v-4.55h14.1v4.55h4.6v5h-5.1v-4.5h-13.1v8.55h9.1v4.95h-9.1v8.6h13.1v-4.55h5.1v5.05h-4.6zM137.35 35.75h-14.1v-4.5h-4.55v-23.1h4.55v-4.55h14.1v4.55h4.6v9.5h-4.6v4h4.6v9.6h-4.6zM123.75 8.65v22.1h13.1v-8.6h-9.1v-4.95h9.1v-8.55zM153.05 35.75h-5.05v-27.6h4.55v-4.55h14.1v4.55h4.6v14h-4.6v4.55h-2.2v4.05h4.5v5h-5v-4.5h-4.6v-4.55h-6.3zM153.05 8.65v13h13.1v-13zM195.95 35.75h-14.1v-4.5h-4.55v-27.65h5.05v27.15h13.1v-27.15h5.1v27.65h-4.6zM210.65 35.75h-5.05v-27.6h4.55v-4.55h5v4.55h4.6v9.05h4v-9.05h4.6v-4.55h5.05v4.55h4.5v27.6h-5v-27.1h-4.05v9h-4.6v13.6h-5v-13.6h-4.6v-9h-4z" fill="black" fill-rule="nonzero" stroke="black" stroke-width="1" stroke-linecap="butt" stroke-linejoin="round" stroke-miterlimit="10" stroke-dasharray="" stroke-dashoffset="0" font-family="none" font-weight="none" font-size="none" text-anchor="none" style="mix-blend-mode: normal" opacity="1"></path></g></svg></g></svg></g></svg></g></svg></g></svg></g></svg></g></mask><g transform="matrix(1,0,0,1,39.55199999999999,76.25209706257982)"><svg viewBox="0 0 316.416 94.69580587484035" height="94.69580587484035" width="316.416"><g><svg viewBox="0 0 316.416 94.69580587484035" height="94.69580587484035" width="316.416"><g><svg viewBox="0 0 316.416 94.69580587484035" height="94.69580587484035" width="316.416"><g id="textblocktransform"><svg viewBox="0 0 316.416 94.69580587484035" height="94.69580587484035" width="316.416" id="textblock"><g><svg viewBox="0 0 316.416 94.69580587484035" height="94.69580587484035" width="316.416"><g transform="matrix(1,0,0,1,0,0)"><svg width="316.416" viewBox="1.9999999999999991 -32.55 236.9 69.3" height="94.69580587484035" data-palette-color="#000000"><svg></svg><svg></svg><g class="wordmark-text-0" data-fill-palette-color="primary" id="text-0"><path d="M125.2 0.6h-14.1v-4.5h-4.55v-5.05h5.05v4.55h13.1v-8.6h-13.6v-4.5h-4.55v-9.5h4.55v-4.55h14.1v4.55h4.6v5h-5.1v-4.5h-13.1v8.55h13.6v4.45h4.6v9.6h-4.6zM154.5 0.6h-14.1v-4.5h-4.55v-23.1h4.55v-4.55h14.1v4.55h4.6v23.1h-4.6zM140.9-26.5v22.1h13.1v-22.1zM183.8 0.6h-14.1v-4.5h-4.55v-27.65h5.05v27.15h13.1v-4.55h5.1v5.05h-4.6zM208.6 0.6h-14.15v-5h4.55v-22.1h-4.55v-5.05h14.15v5.05h-4.6v22.1h4.6zM233.3 0.6h-14.1v-4.5h-4.55v-5.05h5.05v4.55h13.1v-8.6h-13.6v-4.5h-4.55v-9.5h4.55v-4.55h14.1v4.55h4.6v5h-5.1v-4.5h-13.1v8.55h13.6v4.45h4.6v9.6h-4.6z" fill="#000000" fill-rule="nonzero" stroke="none" stroke-width="1" stroke-linecap="butt" stroke-linejoin="miter" stroke-miterlimit="10" stroke-dasharray="" stroke-dashoffset="0" font-family="none" font-weight="none" font-size="none" text-anchor="none" style="mix-blend-mode: normal" data-fill-palette-color="primary" opacity="1"></path><path d="M17.15 35.75h-5.1v-27.1h-4v4.5h-5.05v-5h4.55v-4.55h14.1v4.55h4.6v5h-5.1v-4.5h-4zM49.45 35.75h-14.1v-4.5h-4.55v-23.1h4.55v-4.55h14.1v4.55h4.6v5h-5.1v-4.5h-13.1v8.55h9.1v4.95h-9.1v8.6h13.1v-4.55h5.1v5.05h-4.6zM65.15 35.75h-5.05v-32.15h5.05v4.55h4.5v4.5h4.6v13.55h4v-22.6h5.1v32.15h-5.1v-4.5h-4.5v-4.55h-4.6v-13.55h-4zM108.05 35.75h-14.1v-4.5h-4.55v-23.1h4.55v-4.55h14.1v4.55h4.6v5h-5.1v-4.5h-13.1v8.55h9.1v4.95h-9.1v8.6h13.1v-4.55h5.1v5.05h-4.6zM137.35 35.75h-14.1v-4.5h-4.55v-23.1h4.55v-4.55h14.1v4.55h4.6v9.5h-4.6v4h4.6v9.6h-4.6zM123.75 8.65v22.1h13.1v-8.6h-9.1v-4.95h9.1v-8.55zM153.05 35.75h-5.05v-27.6h4.55v-4.55h14.1v4.55h4.6v14h-4.6v4.55h-2.2v4.05h4.5v5h-5v-4.5h-4.6v-4.55h-6.3zM153.05 8.65v13h13.1v-13zM195.95 35.75h-14.1v-4.5h-4.55v-27.65h5.05v27.15h13.1v-27.15h5.1v27.65h-4.6zM210.65 35.75h-5.05v-27.6h4.55v-4.55h5v4.55h4.6v9.05h4v-9.05h4.6v-4.55h5.05v4.55h4.5v27.6h-5v-27.1h-4.05v9h-4.6v13.6h-5v-13.6h-4.6v-9h-4z" fill="#000000" fill-rule="nonzero" stroke="none" stroke-width="1" stroke-linecap="butt" stroke-linejoin="miter" stroke-miterlimit="10" stroke-dasharray="" stroke-dashoffset="0" font-family="none" font-weight="none" font-size="none" text-anchor="none" style="mix-blend-mode: normal" data-fill-palette-color="primary" opacity="1"></path></g></svg></g></svg></g></svg></g></svg></g></svg></g></svg></g><g mask="url(#b5b557c5-6636-470a-9453-8e60299685d3)"><g transform="matrix(7.228773584905659, 0, 0, 7.228773584905659, 17.438242924528282, 1)"><svg xmlns="http://www.w3.org/2000/svg" xmlns:xlink="http://www.w3.org/1999/xlink" version="1.1" x="0" y="0" viewBox="5.055 13.04 49.89000000000001 33.92" style="enable-background:new 0 0 60 60;" xml:space="preserve" height="33.92" width="49.89000000000001" class="icon-none" data-fill-palette-color="accent" id="none"></svg></g></g></svg></g><defs></defs><mask id="16531ae9-00bb-4b66-943a-ada945a29f7b"><g id="SvgjsG5024"><svg viewBox="0 0 395.52 247.2" height="247.2" width="395.52"><g><svg></svg></g><g><svg viewBox="0 0 395.52 247.2" height="247.2" width="395.52"><mask id="SvgjsMask5023"><rect width="640" height="400" fill="black"></rect><g transform="matrix(1,0,0,1,39.55199999999999,76.25209706257982)"><svg viewBox="0 0 316.416 94.69580587484035" height="94.69580587484035" width="316.416"><g><svg viewBox="0 0 316.416 94.69580587484035" height="94.69580587484035" width="316.416"><g><svg viewBox="0 0 316.416 94.69580587484035" height="94.69580587484035" width="316.416"><g id="SvgjsG5022"><svg viewBox="0 0 316.416 94.69580587484035" height="94.69580587484035" width="316.416" id="SvgjsSvg5021"><g><svg viewBox="0 0 316.416 94.69580587484035" height="94.69580587484035" width="316.416"><g transform="matrix(1,0,0,1,0,0)"><svg width="316.416" viewBox="1.9999999999999991 -32.55 236.9 69.3" height="94.69580587484035" data-palette-color="#000000"><svg></svg><svg></svg><g class="wordmark-text-0" data-fill-palette-color="primary" id="SvgjsG5020"><path d="M125.2 0.6h-14.1v-4.5h-4.55v-5.05h5.05v4.55h13.1v-8.6h-13.6v-4.5h-4.55v-9.5h4.55v-4.55h14.1v4.55h4.6v5h-5.1v-4.5h-13.1v8.55h13.6v4.45h4.6v9.6h-4.6zM154.5 0.6h-14.1v-4.5h-4.55v-23.1h4.55v-4.55h14.1v4.55h4.6v23.1h-4.6zM140.9-26.5v22.1h13.1v-22.1zM183.8 0.6h-14.1v-4.5h-4.55v-27.65h5.05v27.15h13.1v-4.55h5.1v5.05h-4.6zM208.6 0.6h-14.15v-5h4.55v-22.1h-4.55v-5.05h14.15v5.05h-4.6v22.1h4.6zM233.3 0.6h-14.1v-4.5h-4.55v-5.05h5.05v4.55h13.1v-8.6h-13.6v-4.5h-4.55v-9.5h4.55v-4.55h14.1v4.55h4.6v5h-5.1v-4.5h-13.1v8.55h13.6v4.45h4.6v9.6h-4.6z" fill="black" fill-rule="nonzero" stroke="black" stroke-width="1" stroke-linecap="butt" stroke-linejoin="round" stroke-miterlimit="10" stroke-dasharray="" stroke-dashoffset="0" font-family="none" font-weight="none" font-size="none" text-anchor="none" style="mix-blend-mode: normal" opacity="1"></path><path d="M17.15 35.75h-5.1v-27.1h-4v4.5h-5.05v-5h4.55v-4.55h14.1v4.55h4.6v5h-5.1v-4.5h-4zM49.45 35.75h-14.1v-4.5h-4.55v-23.1h4.55v-4.55h14.1v4.55h4.6v5h-5.1v-4.5h-13.1v8.55h9.1v4.95h-9.1v8.6h13.1v-4.55h5.1v5.05h-4.6zM65.15 35.75h-5.05v-32.15h5.05v4.55h4.5v4.5h4.6v13.55h4v-22.6h5.1v32.15h-5.1v-4.5h-4.5v-4.55h-4.6v-13.55h-4zM108.05 35.75h-14.1v-4.5h-4.55v-23.1h4.55v-4.55h14.1v4.55h4.6v5h-5.1v-4.5h-13.1v8.55h9.1v4.95h-9.1v8.6h13.1v-4.55h5.1v5.05h-4.6zM137.35 35.75h-14.1v-4.5h-4.55v-23.1h4.55v-4.55h14.1v4.55h4.6v9.5h-4.6v4h4.6v9.6h-4.6zM123.75 8.65v22.1h13.1v-8.6h-9.1v-4.95h9.1v-8.55zM153.05 35.75h-5.05v-27.6h4.55v-4.55h14.1v4.55h4.6v14h-4.6v4.55h-2.2v4.05h4.5v5h-5v-4.5h-4.6v-4.55h-6.3zM153.05 8.65v13h13.1v-13zM195.95 35.75h-14.1v-4.5h-4.55v-27.65h5.05v27.15h13.1v-27.15h5.1v27.65h-4.6zM210.65 35.75h-5.05v-27.6h4.55v-4.55h5v4.55h4.6v9.05h4v-9.05h4.6v-4.55h5.05v4.55h4.5v27.6h-5v-27.1h-4.05v9h-4.6v13.6h-5v-13.6h-4.6v-9h-4z" fill="black" fill-rule="nonzero" stroke="black" stroke-width="1" stroke-linecap="butt" stroke-linejoin="round" stroke-miterlimit="10" stroke-dasharray="" stroke-dashoffset="0" font-family="none" font-weight="none" font-size="none" text-anchor="none" style="mix-blend-mode: normal" opacity="1"></path></g></svg></g></svg></g></svg></g></svg></g></svg></g></svg></g></mask><g transform="matrix(1,0,0,1,39.55199999999999,76.25209706257982)"><svg viewBox="0 0 316.416 94.69580587484035" height="94.69580587484035" width="316.416"><g><svg viewBox="0 0 316.416 94.69580587484035" height="94.69580587484035" width="316.416"><g><svg viewBox="0 0 316.416 94.69580587484035" height="94.69580587484035" width="316.416"><g id="SvgjsG5019"><svg viewBox="0 0 316.416 94.69580587484035" height="94.69580587484035" width="316.416" id="SvgjsSvg5018"><g><svg viewBox="0 0 316.416 94.69580587484035" height="94.69580587484035" width="316.416"><g transform="matrix(1,0,0,1,0,0)"><svg width="316.416" viewBox="1.9999999999999991 -32.55 236.9 69.3" height="94.69580587484035" data-palette-color="#000000"><svg></svg><svg></svg><g class="wordmark-text-0" data-fill-palette-color="primary" id="SvgjsG5017"><path d="M125.2 0.6h-14.1v-4.5h-4.55v-5.05h5.05v4.55h13.1v-8.6h-13.6v-4.5h-4.55v-9.5h4.55v-4.55h14.1v4.55h4.6v5h-5.1v-4.5h-13.1v8.55h13.6v4.45h4.6v9.6h-4.6zM154.5 0.6h-14.1v-4.5h-4.55v-23.1h4.55v-4.55h14.1v4.55h4.6v23.1h-4.6zM140.9-26.5v22.1h13.1v-22.1zM183.8 0.6h-14.1v-4.5h-4.55v-27.65h5.05v27.15h13.1v-4.55h5.1v5.05h-4.6zM208.6 0.6h-14.15v-5h4.55v-22.1h-4.55v-5.05h14.15v5.05h-4.6v22.1h4.6zM233.3 0.6h-14.1v-4.5h-4.55v-5.05h5.05v4.55h13.1v-8.6h-13.6v-4.5h-4.55v-9.5h4.55v-4.55h14.1v4.55h4.6v5h-5.1v-4.5h-13.1v8.55h13.6v4.45h4.6v9.6h-4.6z" fill="black" fill-rule="nonzero" stroke="none" stroke-width="1" stroke-linecap="butt" stroke-linejoin="miter" stroke-miterlimit="10" stroke-dasharray="" stroke-dashoffset="0" font-family="none" font-weight="none" font-size="none" text-anchor="none" style="mix-blend-mode: normal" opacity="1"></path><path d="M17.15 35.75h-5.1v-27.1h-4v4.5h-5.05v-5h4.55v-4.55h14.1v4.55h4.6v5h-5.1v-4.5h-4zM49.45 35.75h-14.1v-4.5h-4.55v-23.1h4.55v-4.55h14.1v4.55h4.6v5h-5.1v-4.5h-13.1v8.55h9.1v4.95h-9.1v8.6h13.1v-4.55h5.1v5.05h-4.6zM65.15 35.75h-5.05v-32.15h5.05v4.55h4.5v4.5h4.6v13.55h4v-22.6h5.1v32.15h-5.1v-4.5h-4.5v-4.55h-4.6v-13.55h-4zM108.05 35.75h-14.1v-4.5h-4.55v-23.1h4.55v-4.55h14.1v4.55h4.6v5h-5.1v-4.5h-13.1v8.55h9.1v4.95h-9.1v8.6h13.1v-4.55h5.1v5.05h-4.6zM137.35 35.75h-14.1v-4.5h-4.55v-23.1h4.55v-4.55h14.1v4.55h4.6v9.5h-4.6v4h4.6v9.6h-4.6zM123.75 8.65v22.1h13.1v-8.6h-9.1v-4.95h9.1v-8.55zM153.05 35.75h-5.05v-27.6h4.55v-4.55h14.1v4.55h4.6v14h-4.6v4.55h-2.2v4.05h4.5v5h-5v-4.5h-4.6v-4.55h-6.3zM153.05 8.65v13h13.1v-13zM195.95 35.75h-14.1v-4.5h-4.55v-27.65h5.05v27.15h13.1v-27.15h5.1v27.65h-4.6zM210.65 35.75h-5.05v-27.6h4.55v-4.55h5v4.55h4.6v9.05h4v-9.05h4.6v-4.55h5.05v4.55h4.5v27.6h-5v-27.1h-4.05v9h-4.6v13.6h-5v-13.6h-4.6v-9h-4z" fill="black" fill-rule="nonzero" stroke="none" stroke-width="1" stroke-linecap="butt" stroke-linejoin="miter" stroke-miterlimit="10" stroke-dasharray="" stroke-dashoffset="0" font-family="none" font-weight="none" font-size="none" text-anchor="none" style="mix-blend-mode: normal" opacity="1"></path></g></svg></g></svg></g></svg></g></svg></g></svg></g></svg></g><g mask="url(#b5b557c5-6636-470a-9453-8e60299685d3)"><g transform="matrix(7.228773584905659, 0, 0, 7.228773584905659, 17.438242924528282, 1)"><svg xmlns="http://www.w3.org/2000/svg" xmlns:xlink="http://www.w3.org/1999/xlink" version="1.1" x="0" y="0" viewBox="5.055 13.04 49.89000000000001 33.92" style="enable-background:new 0 0 60 60;" xml:space="preserve" height="33.92" width="49.89000000000001" class="icon-none" data-fill-palette-color="accent" id="SvgjsSvg5016"><path d="M54.945 30C54.945 20.65 47.335 13.04 37.985 13.04 28.625 13.04 21.015 20.65 21.015 30S28.625 46.96 37.985 46.96C47.335 46.96 54.945 39.35 54.945 30" fill="white"></path><path d="M5.605 25.81H19.495C19.835 24.27 20.365 22.79 21.075 21.42H7.415C6.615 22.78 6.005 24.25 5.605 25.81" fill="white"></path><path d="M5.055 30C5.055 30.74 5.115 31.47 5.215 32.19H19.145C19.055 31.47 19.015 30.74 19.015 30S19.055 28.53 19.145 27.81H5.215C5.115 28.53 5.055 29.26 5.055 30" fill="white"></path><path d="M22.015 46.96C23.985 46.96 25.925 46.62 27.755 45.96A19.3 19.3 0 0 1 22.245 40.58H8.785C11.895 44.46 16.665 46.96 22.015 46.96" fill="white"></path><path d="M27.755 14.04C25.925 13.38 23.985 13.04 22.015 13.04 16.665 13.04 11.895 15.54 8.785 19.42H22.245A19.3 19.3 0 0 1 27.755 14.04" fill="white"></path><path d="M21.075 38.58A18 18 0 0 1 19.495 34.19H5.605C6.005 35.75 6.615 37.22 7.415 38.58z" fill="white"></path></svg></g></g></svg></g><defs><mask></mask></defs></svg><rect width="395.52" height="247.2" fill="black" stroke="none" visibility="hidden"></rect></g></mask><linearGradient x1="0" x2="1" y1="0.5" y2="0.5" id="7055de70-5102-4893-8da8-c4597443cb44"><stop stop-color="#ffa62e" offset="0"></stop><stop stop-color="#f71b3d" offset="1"></stop></linearGradient><rect width="395.52" height="247.2" fill="url(#7055de70-5102-4893-8da8-c4597443cb44)" mask="url(#16531ae9-00bb-4b66-943a-ada945a29f7b)" data-fill-palette-color="accent"></rect></svg><rect width="395.52" height="247.2" fill="none" stroke="none" visibility="hidden"></rect></g></svg></g></svg>