<svg xmlns="http://www.w3.org/2000/svg" version="1.1" xmlns:xlink="http://www.w3.org/1999/xlink" xmlns:svgjs="http://svgjs.dev/svgjs" width="1500" height="939" viewBox="0 0 1500 939"><g transform="matrix(1,0,0,1,-0.9090909090909918,-1.5145161290323017)"><svg viewBox="0 0 396 248" data-background-color="#ffffff" preserveAspectRatio="xMidYMid meet" height="939" width="1500" xmlns="http://www.w3.org/2000/svg" xmlns:xlink="http://www.w3.org/1999/xlink"><g id="tight-bounds" transform="matrix(1,0,0,1,0.2400000000000091,0.4000000000000057)"><svg viewBox="0 0 395.52 247.2" height="247.2" width="395.52"><g><svg></svg></g><g><svg viewBox="0 0 395.52 247.2" height="247.2" width="395.52"><mask id="26055ec3-9d0a-47d1-96f9-403b7e1e2e07"><rect width="640" height="400" fill="white"></rect><g transform="matrix(1,0,0,1,76.6788625592417,37.08)"><svg viewBox="0 0 242.1622748815166 173.04" height="173.04" width="242.1622748815166"><g><svg viewBox="0 0 242.1622748815166 173.04" height="173.04" width="242.1622748815166"><g><svg viewBox="0 0 242.1622748815166 173.04" height="173.04" width="242.1622748815166"><g><svg viewBox="0 0 242.1622748815166 173.04" height="173.04" width="242.1622748815166"><g id="SvgjsG1778"><svg viewBox="0 0 242.1622748815166 173.04" height="173.04" width="242.1622748815166" id="SvgjsSvg1777"><g><svg viewBox="0 0 242.1622748815166 173.04" height="173.04" width="242.1622748815166"><g transform="matrix(1,0,0,1,0,0)"><svg width="242.1622748815166" viewBox="-0.37 -31.52 45.41 32.734444422221" height="173.04" data-palette-color="#ffffff"><path d="M2.59-3.71L2.59-3.71Q2.83-4.3 3.34-4.44 3.86-4.59 4.44-3.71L4.44-3.71Q4.44-3.61 4.91-3.44 5.37-3.27 6.08-3.05 6.79-2.83 7.74-2.61 8.69-2.39 9.62-2.22 10.55-2.05 11.43-1.93 12.3-1.81 12.94-1.81L12.94-1.81Q14.6-1.81 15.99-2.51 17.38-3.22 18.38-4.35 19.38-5.47 19.92-6.91 20.46-8.35 20.46-9.86L20.46-9.86Q20.46-10.3 20.31-11.4 20.17-12.5 19.82-13.6 19.48-14.7 18.92-15.58 18.36-16.46 17.58-16.46L17.58-16.46Q12.5-15.87 9.25-15.99 6.01-16.11 4.1-16.75 2.2-17.38 1.44-18.48 0.68-19.58 0.63-21L0.63-21Q0.63-22.75 1.51-24.39 2.39-26.03 3.76-27.29 5.13-28.56 6.81-29.32 8.5-30.08 10.16-30.08L10.16-30.08Q11.52-30.08 13.01-29.74 14.5-29.39 15.77-28.69 17.04-27.98 17.85-26.83 18.65-25.68 18.65-24.07L18.65-24.07Q17.48-24.07 16.5-24.73 15.53-25.39 14.55-26.12 13.57-26.86 12.5-27.51 11.43-28.17 10.01-28.17L10.01-28.17Q8.84-28.17 7.64-27.59 6.45-27 5.49-26.07 4.54-25.15 3.93-24 3.32-22.85 3.32-21.63L3.32-21.63Q3.32-21.14 3.34-20.58 3.37-20.02 3.56-19.51 3.76-18.99 4.17-18.65 4.59-18.31 5.37-18.31L5.37-18.31 18.51-18.31Q19.34-18.31 19.95-17.8 20.56-17.29 20.97-16.5 21.39-15.72 21.66-14.75 21.92-13.77 22.09-12.84 22.27-11.91 22.31-11.11 22.36-10.3 22.36-9.86L22.36-9.86Q22.36-7.96 21.83-6.27 21.29-4.59 20.21-3.25 19.14-1.9 17.53-1.05 15.92-0.2 13.82 0L13.82 0Q12.79 0.1 11.16-0.05 9.52-0.2 7.86-0.61 6.2-1.03 4.74-1.78 3.27-2.54 2.59-3.71ZM32.22-27.15L24.07-26.51 24.85-29.05Q24.9-29.1 25.61-29.17 26.32-29.25 27.49-29.37 28.66-29.49 30.12-29.64 31.59-29.79 33.13-29.93 34.67-30.08 36.15-30.22 37.64-30.37 38.91-30.52L38.91-30.52Q38.91-30.52 39.35-30.52 39.79-30.52 40.33-30.52 40.87-30.52 41.35-30.52 41.84-30.52 41.99-30.52L41.99-30.52Q43.16-30.52 43.6-30.08 44.04-29.64 44.04-28.17L44.04-28.17 35.15-27.15Q35.06-24.07 35.25-20.7 35.45-17.33 35.74-13.89 36.03-10.45 36.3-7.08 36.57-3.71 36.57-0.63L36.57-0.63Q36.57-0.2 36.3-0.02 36.03 0.15 35.67 0.2 35.3 0.24 34.91 0.17 34.52 0.1 34.23 0L34.23 0Q34.08-0.63 33.93-2.2 33.79-3.76 33.64-5.86 33.49-7.96 33.35-10.4 33.2-12.84 33.05-15.28 32.91-17.72 32.76-19.95 32.61-22.17 32.52-23.85 32.42-25.54 32.35-26.46 32.27-27.39 32.22-27.15L32.22-27.15Z" opacity="1" transform="matrix(1,0,0,1,0,0)" fill="black" class="wordmark-text-0" id="SvgjsPath1776" stroke-width="1" stroke="black" stroke-linejoin="round"></path></svg></g></svg></g></svg></g></svg></g></svg></g></svg></g></svg></g></mask><g transform="matrix(1,0,0,1,76.6788625592417,37.08)"><svg viewBox="0 0 242.1622748815166 173.04" height="173.04" width="242.1622748815166"><g><svg viewBox="0 0 242.1622748815166 173.04" height="173.04" width="242.1622748815166"><g><svg viewBox="0 0 242.1622748815166 173.04" height="173.04" width="242.1622748815166"><g><svg viewBox="0 0 242.1622748815166 173.04" height="173.04" width="242.1622748815166"><g id="textblocktransform"><svg viewBox="0 0 242.1622748815166 173.04" height="173.04" width="242.1622748815166" id="textblock"><g><svg viewBox="0 0 242.1622748815166 173.04" height="173.04" width="242.1622748815166"><g transform="matrix(1,0,0,1,0,0)"><svg width="242.1622748815166" viewBox="-0.37 -31.52 45.41 32.734444422221" height="173.04" data-palette-color="#ffffff"><path d="M2.59-3.71L2.59-3.71Q2.83-4.3 3.34-4.44 3.86-4.59 4.44-3.71L4.44-3.71Q4.44-3.61 4.91-3.44 5.37-3.27 6.08-3.05 6.79-2.83 7.74-2.61 8.69-2.39 9.62-2.22 10.55-2.05 11.43-1.93 12.3-1.81 12.94-1.81L12.94-1.81Q14.6-1.81 15.99-2.51 17.38-3.22 18.38-4.35 19.38-5.47 19.92-6.91 20.46-8.35 20.46-9.86L20.46-9.86Q20.46-10.3 20.31-11.4 20.17-12.5 19.82-13.6 19.48-14.7 18.92-15.58 18.36-16.46 17.58-16.46L17.58-16.46Q12.5-15.87 9.25-15.99 6.01-16.11 4.1-16.75 2.2-17.38 1.44-18.48 0.68-19.58 0.63-21L0.63-21Q0.63-22.75 1.51-24.39 2.39-26.03 3.76-27.29 5.13-28.56 6.81-29.32 8.5-30.08 10.16-30.08L10.16-30.08Q11.52-30.08 13.01-29.74 14.5-29.39 15.77-28.69 17.04-27.98 17.85-26.83 18.65-25.68 18.65-24.07L18.65-24.07Q17.48-24.07 16.5-24.73 15.53-25.39 14.55-26.12 13.57-26.86 12.5-27.51 11.43-28.17 10.01-28.17L10.01-28.17Q8.84-28.17 7.64-27.59 6.45-27 5.49-26.07 4.54-25.15 3.93-24 3.32-22.85 3.32-21.63L3.32-21.63Q3.32-21.14 3.34-20.58 3.37-20.02 3.56-19.51 3.76-18.99 4.17-18.65 4.59-18.31 5.37-18.31L5.37-18.31 18.51-18.31Q19.34-18.31 19.95-17.8 20.56-17.29 20.97-16.5 21.39-15.72 21.66-14.75 21.92-13.77 22.09-12.84 22.27-11.91 22.31-11.11 22.36-10.3 22.36-9.86L22.36-9.86Q22.36-7.96 21.83-6.27 21.29-4.59 20.21-3.25 19.14-1.9 17.53-1.05 15.92-0.2 13.82 0L13.82 0Q12.79 0.1 11.16-0.05 9.52-0.2 7.86-0.61 6.2-1.03 4.74-1.78 3.27-2.54 2.59-3.71ZM32.22-27.15L24.07-26.51 24.85-29.05Q24.9-29.1 25.61-29.17 26.32-29.25 27.49-29.37 28.66-29.49 30.12-29.64 31.59-29.79 33.13-29.93 34.67-30.08 36.15-30.22 37.64-30.37 38.91-30.52L38.91-30.52Q38.91-30.52 39.35-30.52 39.79-30.52 40.33-30.52 40.87-30.52 41.35-30.52 41.84-30.52 41.99-30.52L41.99-30.52Q43.16-30.52 43.6-30.08 44.04-29.64 44.04-28.17L44.04-28.17 35.15-27.15Q35.06-24.07 35.25-20.7 35.45-17.33 35.74-13.89 36.03-10.45 36.3-7.08 36.57-3.71 36.57-0.63L36.57-0.63Q36.57-0.2 36.3-0.02 36.03 0.15 35.67 0.2 35.3 0.24 34.91 0.17 34.52 0.1 34.23 0L34.23 0Q34.08-0.63 33.93-2.2 33.79-3.76 33.64-5.86 33.49-7.96 33.35-10.4 33.2-12.84 33.05-15.28 32.91-17.72 32.76-19.95 32.61-22.17 32.52-23.85 32.42-25.54 32.35-26.46 32.27-27.39 32.22-27.15L32.22-27.15Z" opacity="1" transform="matrix(1,0,0,1,0,0)" fill="#ffffff" class="wordmark-text-0" data-fill-palette-color="primary" id="text-0"></path></svg></g></svg></g></svg></g></svg></g></svg></g></svg></g></svg></g><g mask="url(#26055ec3-9d0a-47d1-96f9-403b7e1e2e07)"><g transform="matrix(3.1395646606914207, 0, 0, 3.1395646606914207, 81.71225110425377, 1)"><svg xmlns="http://www.w3.org/2000/svg" xmlns:xlink="http://www.w3.org/1999/xlink" version="1.1" x="0" y="0" viewBox="12.1 11.199999999999998 73.9260129588726 78.10000000000001" style="enable-background:new 0 0 100 100;" xml:space="preserve" height="78.10000000000001" width="73.9260129588726" class="icon-none" data-fill-palette-color="accent" id="none"><path d="M86 76.4C86.1 76 85.9 75.6 85.6 75.4L82.6 73.2 82.7 69.4C82.7 69 82.5 68.7 82.2 68.5S81.5 68.4 81.1 68.6L78 70.8 74.4 69.5C74 69.4 73.6 69.5 73.4 69.7 73.1 70 73 70.4 73.1 70.7L74.3 74.3 72 77.3C71.8 77.6 71.7 78 71.9 78.4 72.1 78.7 72.4 79 72.8 79H76.6L78.7 82.1C78.9 82.4 79.2 82.5 79.5 82.5H79.6C80 82.4 80.3 82.2 80.4 81.8L81.6 78.2 85.2 77.1C85.7 77 86 76.7 86 76.4M80.6 76.4C80.3 76.5 80 76.7 79.9 77L79.2 79.2 78 77.4C77.8 77.1 77.5 77 77.2 77H74.9L76.3 75.2C76.5 74.9 76.6 74.6 76.5 74.3L75.8 72.1 77.9 72.9C78.2 73 78.6 73 78.8 72.8L80.6 71.5 80.5 73.8C80.5 74.1 80.6 74.4 80.9 74.6L82.7 75.9z" fill="#ffffff" data-fill-palette-color="accent"></path><path d="M21.7 23C21.9 23.3 22.2 23.6 22.6 23.6H26.4L28.5 26.7C28.7 27 29 27.1 29.3 27.1H29.4C29.8 27 30.1 26.8 30.2 26.4L31.4 22.8 35 21.7C35.4 21.6 35.6 21.3 35.7 20.9S35.6 20.1 35.3 19.9L32.3 17.7 32.4 13.9C32.4 13.5 32.2 13.2 31.9 13S31.2 12.9 30.8 13.1L27.7 15.3 24.1 14C23.7 13.9 23.3 14 23.1 14.2 22.8 14.5 22.7 14.9 22.8 15.2L24 18.8 21.7 21.8C21.6 22.3 21.6 22.7 21.7 23M26.2 18.9L25.5 16.7 27.6 17.5C27.9 17.6 28.3 17.6 28.5 17.4L30.3 16.1 30.2 18.4C30.2 18.7 30.3 19 30.6 19.2L32.4 20.5 30.2 21.1C29.9 21.2 29.6 21.4 29.5 21.7L29 23.9 27.7 22C27.5 21.7 27.2 21.6 26.9 21.6H24.6L26 19.8C26.2 19.5 26.3 19.2 26.2 18.9" fill="#ffffff" data-fill-palette-color="accent"></path><path d="M18.9 44.7C18.5 44.8 18.3 45.2 18.3 45.5 18.3 45.9 18.4 46.2 18.8 46.4L21 47.8 21.1 50.4C21.1 50.8 21.3 51.1 21.7 51.3 21.8 51.4 22 51.4 22.1 51.4 22.3 51.4 22.6 51.3 22.7 51.2L24.7 49.5 27.2 50.2C27.6 50.3 28 50.2 28.2 49.9S28.5 49.2 28.4 48.9L27.4 46.5 28.8 44.3C29 44 29 43.6 28.8 43.2 28.6 42.9 28.3 42.7 27.9 42.7L25.3 43 23.7 41C23.5 40.7 23.1 40.6 22.7 40.6 22.3 40.7 22 41 21.9 41.3L21.3 43.8zM22.5 45.5C22.8 45.4 23 45.1 23.1 44.8L23.4 43.7 24.1 44.5C24.3 44.8 24.6 44.9 25 44.9L26.1 44.8 25.5 45.7C25.3 46 25.3 46.3 25.4 46.6L25.8 47.6 24.8 47.3C24.5 47.2 24.1 47.3 23.9 47.5L23 48.4V47.3C23 47 22.8 46.7 22.5 46.5L21.6 45.9z" fill="#ffffff" data-fill-palette-color="accent"></path><path d="M29.5 85.3C29.6 85.7 29.9 85.9 30.3 86L32.9 86.4 34 88.7C34.2 89 34.5 89.3 34.9 89.3S35.6 89.1 35.8 88.7L36.9 86.4 39.5 86C39.9 85.9 40.2 85.7 40.3 85.3S40.3 84.5 40 84.3L38.1 82.5 38.5 80C38.6 79.6 38.4 79.2 38.1 79S37.4 78.7 37 78.9L34.7 80.1 32.4 78.9C32.1 78.7 31.7 78.8 31.3 79 31 79.2 30.8 79.6 30.9 80L31.3 82.5 29.5 84.3C29.4 84.6 29.3 85 29.5 85.3M33.3 83.6C33.5 83.4 33.6 83 33.6 82.7L33.4 81.6 34.4 82.1C34.7 82.3 35 82.3 35.3 82.1L36.3 81.6 36.1 82.7C36 83 36.2 83.4 36.4 83.6L37.2 84.4 36.1 84.6C35.8 84.6 35.5 84.9 35.3 85.1L34.8 86.1 34.3 85.1C34.2 84.8 33.9 84.6 33.5 84.6L32.4 84.4z" fill="#ffffff" data-fill-palette-color="accent"></path><path d="M15.6 63.4C13.7 63.4 12.1 65 12.1 66.9S13.7 70.4 15.6 70.4 19.1 68.8 19.1 66.9 17.5 63.4 15.6 63.4M15.6 68.4C14.8 68.4 14.1 67.7 14.1 66.9S14.8 65.4 15.6 65.4 17.1 66.1 17.1 66.9 16.4 68.4 15.6 68.4" fill="#ffffff" data-fill-palette-color="accent"></path><path d="M76.9 16.5C76.9 14.6 75.3 13 73.4 13S69.9 14.6 69.9 16.5 71.5 20 73.4 20 76.9 18.4 76.9 16.5M71.9 16.5C71.9 15.7 72.6 15 73.4 15S74.9 15.7 74.9 16.5 74.2 18 73.4 18 71.9 17.3 71.9 16.5" fill="#ffffff" data-fill-palette-color="accent"></path><path d="M60.2 82.6C60.2 84.5 61.8 86.1 63.7 86.1S67.2 84.5 67.2 82.6 65.6 79.1 63.7 79.1 60.2 80.7 60.2 82.6M65.2 82.6C65.2 83.4 64.5 84.1 63.7 84.1S62.2 83.4 62.2 82.6 62.9 81.1 63.7 81.1C64.6 81.1 65.2 81.8 65.2 82.6" fill="#ffffff" data-fill-palette-color="accent"></path><path d="M61.9 26.5L56.7 31.7C56.3 32.1 56.3 32.7 56.7 33.1 56.9 33.3 57.2 33.4 57.4 33.4S57.9 33.3 58.1 33.1L63.3 27.9C63.7 27.5 63.7 26.9 63.3 26.5S62.3 26.1 61.9 26.5" fill="#ffffff" data-fill-palette-color="accent"></path><path d="M52.4 50.1C52 49.7 51.4 49.7 51 50.1L24.8 76.3C24.4 76.7 24.4 77.3 24.8 77.7 25 77.9 25.3 78 25.5 78S26 77.9 26.2 77.7L52.4 51.5C52.8 51.1 52.8 50.5 52.4 50.1" fill="#ffffff" data-fill-palette-color="accent"></path><path d="M81.9 32.8L46.8 67.9C46.4 68.3 46.4 68.9 46.8 69.3 47 69.5 47.3 69.6 47.5 69.6S48 69.5 48.2 69.3L83.3 34.2C83.7 33.8 83.7 33.2 83.3 32.8S82.3 32.4 81.9 32.8" fill="#ffffff" data-fill-palette-color="accent"></path><path d="M59.9 11.5L33.8 37.6C33.4 38 33.4 38.6 33.8 39 34 39.2 34.3 39.3 34.5 39.3S35 39.2 35.2 39L61.3 12.9C61.7 12.5 61.7 11.9 61.3 11.5S60.3 11.1 59.9 11.5" fill="#ffffff" data-fill-palette-color="accent"></path><path d="M32.9 58.3L52.2 39C52.6 38.6 52.6 38 52.2 37.6S51.2 37.2 50.8 37.6L31.5 56.9C31.1 57.3 31.1 57.9 31.5 58.3 31.7 58.5 32 58.6 32.2 58.6S32.7 58.5 32.9 58.3" fill="#ffffff" data-fill-palette-color="accent"></path><path d="M57.1 72.1L51.9 77.3C51.5 77.7 51.5 78.3 51.9 78.7 52.1 78.9 52.4 79 52.6 79S53.1 78.9 53.3 78.7L58.5 73.5C58.9 73.1 58.9 72.5 58.5 72.1S57.5 71.7 57.1 72.1" fill="#ffffff" data-fill-palette-color="accent"></path><path d="M83.7 46.9C83.3 46.5 82.7 46.5 82.3 46.9L63 66.2C62.6 66.6 62.6 67.2 63 67.6 63.2 67.8 63.5 67.9 63.7 67.9S64.2 67.8 64.4 67.6L83.7 48.3C84.1 47.9 84.1 47.3 83.7 46.9" fill="#ffffff" data-fill-palette-color="accent"></path><path d="M57.4 45.5C57.6 45.7 57.9 45.8 58.1 45.8S58.6 45.7 58.8 45.5L76.1 28.2C76.5 27.8 76.5 27.2 76.1 26.8S75.1 26.4 74.7 26.8L57.4 44.1C57 44.5 57 45.2 57.4 45.5" fill="#ffffff" data-fill-palette-color="accent"></path></svg></g></g></svg></g><defs></defs></svg><rect width="395.52" height="247.2" fill="none" stroke="none" visibility="hidden"></rect></g></svg></g></svg>